<svg width="50" height="49" viewBox="0 0 50 49" fill="none" xmlns="http://www.w3.org/2000/svg">
<path d="M41.9944 30.5199L41.9915 30.5291L41.9888 30.5383L37.7428 45H9.94626L1.17962 18.3264L25.0788 1.25879L45.8433 18.2847L41.9944 30.5199Z" stroke="black" stroke-width="2"/>
<path d="M34.3429 9.56981L42.568 29.7653L27.2377 45.8164L6.3757 34.3206L10.3554 12.0149L34.3429 9.56981Z" fill="black"/>
<path d="M2 19L10 13L7 32.5L2 19Z" fill="#92F92A"/>
<path d="M34 10L12 12H11.5L25 2.5L34 10Z" fill="#BF56E3"/>
<path d="M42 28.5L34.5 10.5L45 18.5L42 28.5Z" fill="#F44949"/>
<path d="M37 44L40.5 32L29 44H37Z" fill="#F5E129"/>
<path d="M10.5 44L7.5 35L24 44H10.5Z" fill="#198DB1"/>
<path d="M20.4297 17.3281C20.2422 17.3906 20.1016 17.3984 20.0078 17.3516C19.9141 17.3047 19.8438 17.2266 19.7969 17.1172C19.75 17.0078 19.7266 16.8906 19.7266 16.7656C19.7266 16.625 19.7344 16.4922 19.75 16.3672C19.7656 16.2578 19.7891 16.1328 19.8203 15.9922C19.8672 15.8516 19.9219 15.7188 19.9844 15.5938C20.0469 15.4688 20.1172 15.3672 20.1953 15.2891C20.2891 15.1953 20.4062 15.1328 20.5469 15.1016C21.2656 14.9766 21.9609 14.8828 22.6328 14.8203C23.3203 14.7578 23.9375 14.7109 24.4844 14.6797C25.1094 14.6328 25.7109 14.6094 26.2891 14.6094C26.4141 14.6094 26.5391 14.6172 26.6641 14.6328C26.7891 14.6328 26.9141 14.6328 27.0391 14.6328C27.1797 14.6016 27.2891 14.5938 27.3672 14.6094C27.4609 14.6094 27.5391 14.6172 27.6016 14.6328C28.0547 14.6484 28.5234 14.6719 29.0078 14.7031C29.4141 14.7344 29.8672 14.7734 30.3672 14.8203C30.8828 14.8516 31.3906 14.8984 31.8906 14.9609C31.9375 15.0859 31.9453 15.2422 31.9141 15.4297C31.8984 15.5234 31.8828 15.6172 31.8672 15.7109C31.8516 15.8047 31.8125 15.8906 31.75 15.9688C31.7031 16.0469 31.6406 16.125 31.5625 16.2031C31.5 16.2656 31.4219 16.3203 31.3281 16.3672C30.7969 16.3516 30.2812 16.3438 29.7812 16.3438C29.2969 16.3281 28.8672 16.3203 28.4922 16.3203H27.2266C27.0234 17.0391 26.7734 17.9297 26.4766 18.9922C26.1797 20.0391 25.875 21.1484 25.5625 22.3203C25.2656 23.4766 24.9766 24.6328 24.6953 25.7891C24.4297 26.9297 24.2188 27.9609 24.0625 28.8828C23.9062 29.7734 23.75 30.6484 23.5938 31.5078C23.5312 31.8672 23.4609 32.2422 23.3828 32.6328C23.3203 33.0234 23.2578 33.4062 23.1953 33.7812C23.1484 34.1562 23.1016 34.5156 23.0547 34.8594C23.0078 35.2031 22.9688 35.5156 22.9375 35.7969C22.6875 35.9219 22.4531 36.0156 22.2344 36.0781C22.0156 36.1562 21.8203 36.2109 21.6484 36.2422C21.4453 36.2891 21.2578 36.3125 21.0859 36.3125C20.7109 36.3125 20.4766 36.2656 20.3828 36.1719C20.3047 36.0938 20.2969 35.9297 20.3594 35.6797C20.4062 35.4609 20.5469 34.8672 20.7812 33.8984C20.875 33.4922 20.9922 32.9766 21.1328 32.3516C21.2891 31.7422 21.4688 31 21.6719 30.125C21.875 29.2344 22.1172 28.2031 22.3984 27.0312C22.6797 25.8438 23 24.4844 23.3594 22.9531L24.9297 16.4375C24.4609 16.5 24 16.5703 23.5469 16.6484C23.0938 16.7266 22.6641 16.8125 22.2578 16.9062C21.8672 16.9844 21.5078 17.0625 21.1797 17.1406C20.8672 17.2188 20.6172 17.2812 20.4297 17.3281Z" fill="white"/>
</svg>
